<svg width="16" height="16" viewBox="0 0 16 16" fill="none" xmlns="http://www.w3.org/2000/svg">
<rect width="16" height="16" rx="8" fill="white"/>
<path fill-rule="evenodd" clip-rule="evenodd" d="M9.88225 4.40771L9.84457 4.37273C9.68767 4.24446 9.4608 4.25612 9.31662 4.40771L9.28335 4.44733C9.16135 4.61229 9.17244 4.85082 9.31662 5.00241L10.6333 6.38711H5.99978L5.95314 6.38994C5.75422 6.41423 5.59982 6.59197 5.59982 6.80762C5.59982 7.03987 5.77889 7.22814 5.99978 7.22814H11.5992L11.6447 7.22562C11.9703 7.1891 12.1231 6.76367 11.8821 6.51028L9.88225 4.40771ZM10.4002 8.84861C10.4002 8.61637 10.2211 8.4281 10.0002 8.4281H4.40076L4.35531 8.43062C4.02973 8.46713 3.87694 8.89257 4.11795 9.14596L6.11775 11.2485L6.15543 11.2835C6.31233 11.4118 6.5392 11.4001 6.68338 11.2485L6.71665 11.2089C6.83865 11.0439 6.82756 10.8054 6.68338 10.6538L5.36667 9.26913H10.0002L10.0469 9.2663C10.2458 9.24201 10.4002 9.06427 10.4002 8.84861Z" fill="#0C1016"/>
</svg>
