<svg width="18" height="16" viewBox="0 0 18 16" fill="none" xmlns="http://www.w3.org/2000/svg">
<path d="M7.07849 1.40212C7.77691 -0.197524 10.0459 -0.197521 10.7443 1.40212L11.5665 3.2853C11.8627 3.96357 12.5092 4.42286 13.2471 4.47922L15.2007 4.62842C17.0013 4.76592 17.712 7.0305 16.3129 8.17216L14.9704 9.26766C14.3698 9.75781 14.1065 10.551 14.2948 11.303L14.7297 13.04C15.1595 14.7562 13.313 16.1442 11.7838 15.2545L9.91724 14.1684C9.29548 13.8066 8.52733 13.8066 7.90557 14.1684L6.03902 15.2545C4.50981 16.1442 2.66333 14.7562 3.09308 13.04L3.52802 11.303C3.71634 10.551 3.45306 9.75781 2.85239 9.26766L1.5099 8.17216C0.110832 7.03049 0.821547 4.76592 2.62207 4.62842L4.57566 4.47922C5.31362 4.42286 5.96013 3.96357 6.25628 3.28529L7.07849 1.40212Z" fill="#EDF5BB"/>
</svg>
